<?xml version="1.0" encoding="UTF-8"?>
<!--Generator: Apple Native CoreSVG 175.5-->
<!DOCTYPE svg
PUBLIC "-//W3C//DTD SVG 1.1//EN"
       "http://www.w3.org/Graphics/SVG/1.1/DTD/svg11.dtd">
<svg version="1.1" xmlns="http://www.w3.org/2000/svg" xmlns:xlink="http://www.w3.org/1999/xlink" width="17.9785" height="17.998">
 <g>
  <rect height="17.998" opacity="0" width="17.9785" x="0" y="0"/>
  <path d="M3.06641 17.998L14.9121 17.998C16.9629 17.998 17.9785 16.9824 17.9785 14.9707L17.9785 3.04688C17.9785 1.03516 16.9629 0.0195312 14.9121 0.0195312L3.06641 0.0195312C1.02539 0.0195312 0 1.02539 0 3.04688L0 14.9707C0 16.9922 1.02539 17.998 3.06641 17.998ZM8.99414 10.8105C8.48633 10.8105 8.21289 10.5273 8.20312 10.0098L8.06641 4.6875C8.05664 4.16992 8.4375 3.79883 8.98438 3.79883C9.52148 3.79883 9.92188 4.17969 9.91211 4.69727L9.77539 10.0098C9.76562 10.5371 9.48242 10.8105 8.99414 10.8105ZM8.99414 14.082C8.4082 14.082 7.90039 13.6133 7.90039 13.0371C7.90039 12.4609 8.39844 11.9824 8.99414 11.9824C9.58984 11.9824 10.0879 12.4512 10.0879 13.0371C10.0879 13.623 9.58008 14.082 8.99414 14.082Z" fill="#6c6c6c"/>
 </g>
</svg>
