<?xml version="1.0" encoding="UTF-8"?>
<!--Generator: Apple Native CoreSVG 175.5-->
<!DOCTYPE svg
PUBLIC "-//W3C//DTD SVG 1.1//EN"
       "http://www.w3.org/Graphics/SVG/1.1/DTD/svg11.dtd">
<svg version="1.1" xmlns="http://www.w3.org/2000/svg" xmlns:xlink="http://www.w3.org/1999/xlink" width="19.9219" height="19.9316">
 <g>
  <rect height="19.9316" opacity="0" width="19.9219" x="0" y="0"/>
  <path d="M9.96094 19.9219C15.4102 19.9219 19.9219 15.4004 19.9219 9.96094C19.9219 4.51172 15.4004 0 9.95117 0C4.51172 0 0 4.51172 0 9.96094C0 15.4004 4.52148 19.9219 9.96094 19.9219ZM5.26367 11.4258C4.45312 11.4258 3.78906 10.7715 3.78906 9.95117C3.78906 9.14062 4.45312 8.48633 5.26367 8.48633C6.06445 8.48633 6.72852 9.14062 6.72852 9.95117C6.72852 10.7715 6.07422 11.4258 5.26367 11.4258ZM9.96094 11.4258C9.15039 11.4258 8.48633 10.7715 8.48633 9.95117C8.48633 9.14062 9.15039 8.48633 9.96094 8.48633C10.7715 8.48633 11.4258 9.14062 11.4258 9.95117C11.4258 10.7715 10.7715 11.4258 9.96094 11.4258ZM14.668 11.4258C13.8477 11.4258 13.1934 10.7715 13.1934 9.95117C13.1934 9.14062 13.8477 8.48633 14.668 8.48633C15.4688 8.48633 16.1328 9.14062 16.1328 9.95117C16.1328 10.7715 15.4688 11.4258 14.668 11.4258Z" fill="#6c6c6c"/>
 </g>
</svg>
